<svg xmlns="http://www.w3.org/2000/svg" width="48" height="48" viewBox="0 0 12.7 12.7"><path d="m 80.536196,143.58037 h 87.473994 v 65.39962 l -11.68041,12.58565 H 80.536196 Z" style="fill:#f8e45c;stroke:#e8dcca;stroke-width:0" transform="matrix(.14508 0 0 .14245 -11.684 -19.66)"/><path d="M80.591 143.58H168.012V156.699H80.591zM167.595 208.722l-11.691-.515M168.076 208.927l-12.79.248 1.015 12.415z" style="fill:#f6d32d;stroke:#26a269;stroke-width:0;stroke-dasharray:none;stroke-opacity:1" transform="matrix(.14508 0 0 .14245 -11.684 -19.66)"/><path d="m 93.829041,178.35022 c 1.754136,1.76671 3.466777,3.57883 5.227878,5.3398 2.560381,2.59603 5.314581,5.00042 7.723831,7.75496 0.41811,0.47802 0.81083,0.97931 1.21624,1.46896 2.19633,2.7498 4.51445,5.39152 6.6264,8.21305 1.06416,1.45254 2.12003,2.91174 3.17326,4.37291 0.1229,0.14239 0.19458,0.36481 0.36872,0.42718 0.85492,0.30623 1.21398,-0.0492 1.79876,-0.66082 0.33582,-0.35126 0.61825,-0.75408 0.90736,-1.14756 0.58878,-0.8013 1.74167,-2.58357 2.21996,-3.31073 3.49052,-5.36671 6.81498,-10.85537 10.52617,-16.0644 0.72805,-1.02192 1.48616,-2.02038 2.22925,-3.03057 3.56974,-4.60403 7.19417,-9.16407 10.85925,-13.6869 1.97726,-2.37963 3.9976,-4.74498 6.24553,-6.85745 0.88967,-0.83606 2.3371,-2.04738 3.26638,-2.83774 2.0172,-1.64721 3.91989,-3.42887 5.76398,-5.27864 0.49075,-0.49229 -0.1802,-1.21243 -0.67095,-0.72014 v 0 c -1.8251,1.83087 -3.7081,3.59431 -5.70501,5.22416 -0.97434,0.82884 -2.39212,2.01441 -3.3228,2.88967 -2.27264,2.13731 -4.31652,4.52865 -6.316,6.93553 -3.67478,4.53498 -7.30914,9.10697 -10.88777,13.72384 -0.74876,1.01815 -1.51263,2.02453 -2.24628,3.05445 -3.71527,5.21563 -7.04498,10.70999 -10.53911,16.0836 -0.51888,0.78903 -1.55687,2.39519 -2.17186,3.24377 -0.25393,0.35039 -0.52004,0.69144 -0.79382,1.02535 -0.1377,0.16793 -0.32732,0.29181 -0.43965,0.47897 -0.045,0.0749 0.0753,0.28811 -0.007,0.26461 -0.14911,-0.0428 -0.20827,-0.2374 -0.31241,-0.3561 -1.05675,-1.46606 -2.11616,-2.93015 -3.18395,-4.38748 -2.12243,-2.83411 -4.44913,-5.48989 -6.65674,-8.25156 -0.41703,-0.50293 -0.8212,-1.01765 -1.25108,-1.50879 -2.41887,-2.76359 -5.18028,-5.17925 -7.751152,-7.78339 -1.546196,-1.5459 -1.411755,-1.39476 -2.814528,-2.85454 -0.731672,-0.76142 -1.440302,-1.55503 -2.198143,-2.28933 -0.104194,-0.10097 -0.215966,-0.19316 -0.323951,-0.28974 -0.555447,-0.41167 -1.11653,0.40339 -0.561086,0.81507 z" style="fill:#f6d32d;stroke:#26a269;stroke-width:5.20338;stroke-dasharray:none;stroke-opacity:1" transform="matrix(.14508 0 0 .14245 -11.684 -19.66)"/></svg>